<svg width="91" height="170" viewBox="0 0 91 170" fill="none" xmlns="http://www.w3.org/2000/svg">
    <g filter="url(#filter0_d_2_5)">
    <path d="M56.149 86.722V61.825H25.963V87.754C25.963 93.86 27.081 98.289 29.317 101.041C31.553 103.707 34.993 105.04 39.637 105.04C44.195 105.04 48.065 103.406 51.247 100.138C54.515 96.784 56.149 92.312 56.149 86.722ZM81.175 53.182V61.825H66.34V136H56.149V105.298C52.193 110.544 46.474 113.21 38.992 113.296C23.512 113.296 15.772 104.739 15.772 87.625V61.825H4.162V53.182H81.175Z" fill="#E80E0E"/>
    </g>
    <g filter="url(#filter1_d_2_5)">
    <path d="M31.4396 32.3985C31.2906 32.3245 31.1789 32.2494 31.0929 32.1676C30.9206 32.003 30.7918 31.6283 30.7598 31.4824C30.7055 31.237 30.7242 30.8601 30.7408 30.528C30.7471 30.4004 30.7531 30.2845 30.7531 30.1952C30.7531 30.0103 30.77 29.7707 30.7878 29.5172C30.8262 28.9741 30.8741 28.2992 30.7673 27.9719C30.6146 27.5032 30.3455 26.945 29.9312 26.945C29.4483 26.945 28.9218 27.6553 28.8569 27.9452C28.7546 28.4045 28.7546 29.406 28.8566 29.8596C28.8756 29.944 28.9683 30.1118 29.0428 30.2471C29.1152 30.3785 29.1837 30.5032 29.2232 30.6101C29.2447 30.6694 29.2754 30.7415 29.3095 30.8221C29.4782 31.2228 29.6879 31.7218 29.5506 32.0697C29.3485 32.5812 28.6997 32.8447 28.0129 33.124C27.5256 33.3221 26.9733 33.5469 26.8194 33.8098C26.5458 34.2778 26.3894 35.4777 26.6269 35.7512C27.1849 36.3942 28.6949 36.8264 30.3847 36.8264H30.385C31.1406 36.8264 31.8434 36.7398 32.4297 36.5794C31.9924 36.3655 31.6424 36.1081 31.3844 35.8105C30.6231 34.9346 31.0757 33.0322 31.4396 32.3985Z" fill="#FF0B0B"/>
    <path d="M36.354 18C29.3696 18 23.708 24.0443 23.708 31.5002C23.708 38.9557 29.3699 45 36.354 45C43.3382 45 49 38.9554 49 31.5002C49 24.044 43.3385 18 36.354 18ZM33.2882 36.8461C32.5486 37.1847 31.5175 37.3715 30.3847 37.3715C30.3847 37.3715 30.3847 37.3715 30.3844 37.3715C28.9782 37.3715 27.0527 37.0442 26.2527 36.122C25.7826 35.5802 26.0659 34.0717 26.3867 33.5224C26.6311 33.1047 27.2138 32.8676 27.8309 32.6166C28.3617 32.4008 28.9631 32.156 29.0805 31.859C29.1315 31.7295 28.923 31.2328 28.8442 31.0463C28.8062 30.9564 28.7721 30.8752 28.7483 30.8099C28.7235 30.7425 28.6623 30.6311 28.6034 30.5235C28.5023 30.3405 28.3979 30.1505 28.3611 29.9875C28.2407 29.454 28.2407 28.3598 28.3611 27.8199C28.4697 27.3322 29.1659 26.4013 29.9311 26.4013C30.3249 26.4013 30.8732 26.6429 31.2486 27.7929C31.3904 28.2277 31.3403 28.9341 31.2963 29.5581C31.2791 29.801 31.2628 30.0313 31.2628 30.1956C31.2628 30.2925 31.2567 30.4188 31.2498 30.5573C31.2365 30.8234 31.2184 31.1883 31.2561 31.3581C31.2866 31.4966 31.3877 31.7166 31.4327 31.7614C31.5473 31.8712 31.7764 31.9656 31.9387 32.0262C32.0211 32.0578 32.083 32.1309 32.1023 32.222C32.1216 32.3132 32.0959 32.4082 32.0344 32.4743C31.9647 32.549 31.9149 32.6134 31.8778 32.6769C31.5769 33.1916 31.2112 34.8109 31.7583 35.4413C32.0775 35.8095 32.5839 36.1101 33.2634 36.3352C33.3654 36.369 33.4369 36.4666 33.4424 36.5807C33.4478 36.6947 33.3862 36.8007 33.2882 36.8461ZM35.9865 36.5994C34.5794 36.5994 32.6524 36.2721 31.8518 35.3492C31.3817 34.8071 31.665 33.2982 31.9858 32.7497C32.2302 32.3319 32.8129 32.0948 33.43 31.8439C33.9608 31.6271 34.5622 31.3823 34.6796 31.0853C34.7309 30.9558 34.5217 30.4594 34.4427 30.2719C34.405 30.1827 34.3712 30.1015 34.347 30.0361C34.3223 29.9688 34.261 29.858 34.2019 29.7504C34.1011 29.5668 33.9964 29.3774 33.9599 29.2144C33.8395 28.6809 33.8395 27.5867 33.9599 27.0465C34.0685 26.5594 34.7644 25.6279 35.5299 25.6279C35.9237 25.6279 36.472 25.8695 36.8474 27.0201C36.9892 27.4543 36.9391 28.1614 36.8951 28.785C36.8779 29.0285 36.8616 29.2582 36.8616 29.4228C36.8616 29.5191 36.8552 29.6454 36.8486 29.7839C36.8353 30.0506 36.8172 30.4149 36.8546 30.5847C36.8857 30.7232 36.9868 30.9439 37.0315 30.9886C37.1914 31.1416 37.5653 31.2673 37.9262 31.39C38.4349 31.562 38.915 31.7244 39.1603 32.0375C39.6383 32.6479 40.4199 34.5735 39.8671 35.3318C39.2883 36.1252 37.8374 36.5994 35.9865 36.5994ZM45.808 32.8109C46.2854 33.4207 47.067 35.3469 46.5147 36.1046C45.9363 36.898 44.4866 37.3725 42.6372 37.3725C41.2328 37.3725 39.9078 37.0832 39.0921 36.5994C39.0092 36.5501 38.9585 36.4557 38.9609 36.3533C38.9636 36.2521 39.0188 36.1606 39.1045 36.1162C39.479 35.9229 39.7693 35.6871 39.9672 35.4152C40.4425 34.7642 40.0255 33.5253 39.8239 33.0225C39.7967 32.9545 39.7967 32.8779 39.8239 32.8093C39.8511 32.7413 39.903 32.6878 39.9675 32.6614L40.078 32.616C40.6085 32.4002 41.2096 32.156 41.3269 31.859C41.3779 31.7295 41.1691 31.2328 41.0907 31.0463C41.053 30.9564 41.0189 30.8746 40.995 30.8092C40.9703 30.7425 40.909 30.6311 40.8499 30.5235C40.7491 30.3399 40.6444 30.1505 40.6076 29.9875C40.4875 29.4534 40.4875 28.3591 40.6076 27.8199C40.7159 27.3322 41.412 26.4013 42.1776 26.4013C42.5714 26.4013 43.1194 26.6429 43.4948 27.7929C43.6366 28.2271 43.5865 28.9341 43.5424 29.5581C43.5249 29.801 43.5089 30.0313 43.5089 30.1956C43.5089 30.2925 43.5026 30.4188 43.496 30.5573C43.4824 30.8234 43.4646 31.1877 43.5023 31.3581C43.5334 31.4966 43.6342 31.7166 43.6794 31.762C43.8391 31.9147 44.2129 32.04 44.5735 32.1628C45.0823 32.3345 45.5624 32.4975 45.808 32.8109Z" fill="#FF0B0B"/>
    <path d="M37.772 31.9083C37.3405 31.7627 36.9334 31.6251 36.6917 31.3942C36.5197 31.2299 36.3905 30.8556 36.3586 30.7097C36.3042 30.4642 36.3229 30.0873 36.3395 29.7552C36.3459 29.628 36.3516 29.511 36.3516 29.4225C36.3516 29.2376 36.3685 28.9979 36.3866 28.7437C36.4249 28.2013 36.4729 27.5264 36.3661 27.1992C36.2131 26.7305 35.9442 26.1722 35.5302 26.1722C35.0474 26.1722 34.5209 26.8825 34.456 27.1724C34.3537 27.6311 34.3534 28.6333 34.4557 29.0862C34.4747 29.1706 34.5673 29.3384 34.6416 29.4737C34.7143 29.6057 34.7825 29.7298 34.822 29.8374C34.8434 29.8953 34.8739 29.9675 34.908 30.048C35.077 30.4494 35.287 30.9484 35.1497 31.2969C34.9472 31.8084 34.2988 32.0722 33.6117 32.3512C33.1243 32.5493 32.5718 32.7741 32.4182 33.037C32.1445 33.505 31.9882 34.7053 32.2257 34.9784C32.784 35.622 34.2951 36.0543 35.9862 36.0543C37.6308 36.0543 38.9956 35.6391 39.4642 34.9961C39.7702 34.5771 39.2367 32.9835 38.7687 32.3857C38.619 32.1953 38.1691 32.0429 37.772 31.9083Z" fill="#FF0B0B"/>
    <path d="M43.3394 32.1676C43.1668 32.0017 43.0382 31.6274 43.0062 31.4824C42.9519 31.2363 42.9703 30.8601 42.9872 30.528C42.9935 30.4004 42.9996 30.2845 42.9996 30.1952C42.9996 30.0103 43.0165 29.7707 43.0346 29.5165C43.0729 28.9741 43.1206 28.2992 43.0141 27.9719C42.8611 27.5032 42.5925 26.945 42.1782 26.945C41.6954 26.945 41.1685 27.6553 41.1036 27.9452C41.0017 28.4039 41.001 29.406 41.1036 29.8596C41.1224 29.9433 41.215 30.1118 41.2895 30.2464C41.3619 30.3785 41.4307 30.5025 41.4703 30.6101C41.492 30.6694 41.5228 30.7415 41.5569 30.8227C41.7253 31.2234 41.9347 31.7218 41.7974 32.0697C41.6088 32.5477 41.0288 32.8096 40.393 33.0698C40.6634 33.833 40.9214 34.9932 40.3704 35.7486C40.2123 35.9651 40.0113 36.1616 39.7696 36.3352C40.514 36.6461 41.5454 36.8255 42.6375 36.8255C44.2805 36.8255 45.6445 36.4109 46.1131 35.7686C46.4188 35.3489 45.885 33.7553 45.4175 33.1581C45.2673 32.9661 44.8171 32.8141 44.4199 32.6794C43.9884 32.5351 43.5808 32.3979 43.3394 32.1676Z" fill="#FF0B0B"/>
    </g>
    <defs>
    <filter id="filter0_d_2_5" x="0.162" y="53.182" width="85.013" height="90.818" filterUnits="userSpaceOnUse" color-interpolation-filters="sRGB">
    <feFlood flood-opacity="0" result="BackgroundImageFix"/>
    <feColorMatrix in="SourceAlpha" type="matrix" values="0 0 0 0 0 0 0 0 0 0 0 0 0 0 0 0 0 0 127 0" result="hardAlpha"/>
    <feOffset dy="4"/>
    <feGaussianBlur stdDeviation="2"/>
    <feComposite in2="hardAlpha" operator="out"/>
    <feColorMatrix type="matrix" values="0 0 0 0 0 0 0 0 0 0 0 0 0 0 0 0 0 0 0.25 0"/>
    <feBlend mode="normal" in2="BackgroundImageFix" result="effect1_dropShadow_2_5"/>
    <feBlend mode="normal" in="SourceGraphic" in2="effect1_dropShadow_2_5" result="shape"/>
    </filter>
    <filter id="filter1_d_2_5" x="19.708" y="18" width="33.292" height="35" filterUnits="userSpaceOnUse" color-interpolation-filters="sRGB">
    <feFlood flood-opacity="0" result="BackgroundImageFix"/>
    <feColorMatrix in="SourceAlpha" type="matrix" values="0 0 0 0 0 0 0 0 0 0 0 0 0 0 0 0 0 0 127 0" result="hardAlpha"/>
    <feOffset dy="4"/>
    <feGaussianBlur stdDeviation="2"/>
    <feComposite in2="hardAlpha" operator="out"/>
    <feColorMatrix type="matrix" values="0 0 0 0 0 0 0 0 0 0 0 0 0 0 0 0 0 0 0.25 0"/>
    <feBlend mode="normal" in2="BackgroundImageFix" result="effect1_dropShadow_2_5"/>
    <feBlend mode="normal" in="SourceGraphic" in2="effect1_dropShadow_2_5" result="shape"/>
    </filter>
    </defs>
</svg>
