<svg width="455" height="170" viewBox="0 0 455 170" fill="none" xmlns="http://www.w3.org/2000/svg">
<g filter="url(#filter0_d_2_15)">
<path d="M55.859 87.238V63.115H31.349V88.141C31.349 92.871 32.252 96.311 34.058 98.461C35.95 100.525 38.745 101.557 42.443 101.557C46.313 101.557 49.495 100.31 51.989 97.816C54.569 95.236 55.859 91.71 55.859 87.238ZM84.755 50.86V63.115H71.081V136H55.859V107.491C51.903 111.619 46.614 113.683 39.992 113.683C24.082 113.683 16.127 104.997 16.127 87.625V63.115H4.517V50.86H84.755ZM123.118 137.2C117.718 137.2 112.685 136.333 108.018 134.6C103.418 132.8 99.4184 130.267 96.0184 127C92.6184 123.733 89.9517 119.9 88.0184 115.5C86.1517 111.1 85.2184 106.267 85.2184 101C85.2184 95.7333 86.1517 90.9 88.0184 86.5C89.9517 82.1 92.6184 78.2667 96.0184 75C99.485 71.7333 103.518 69.2333 108.118 67.5C112.718 65.7 117.752 64.8 123.218 64.8C129.285 64.8 134.752 65.8667 139.618 68C144.552 70.0667 148.685 73.1333 152.018 77.2L141.618 86.8C139.218 84.0667 136.552 82.0333 133.618 80.7C130.685 79.3 127.485 78.6 124.018 78.6C120.752 78.6 117.752 79.1333 115.018 80.2C112.285 81.2667 109.918 82.8 107.918 84.8C105.918 86.8 104.352 89.1667 103.218 91.9C102.152 94.6333 101.618 97.6667 101.618 101C101.618 104.333 102.152 107.367 103.218 110.1C104.352 112.833 105.918 115.2 107.918 117.2C109.918 119.2 112.285 120.733 115.018 121.8C117.752 122.867 120.752 123.4 124.018 123.4C127.485 123.4 130.685 122.733 133.618 121.4C136.552 120 139.218 117.9 141.618 115.1L152.018 124.7C148.685 128.767 144.552 131.867 139.618 134C134.752 136.133 129.252 137.2 123.118 137.2Z" fill="#E80E0E"/>
<path d="M194.558 81.4C198.825 81.4 202.625 82.2667 205.958 84C209.358 85.6667 212.025 88.2667 213.958 91.8C215.892 95.2667 216.858 99.7333 216.858 105.2V136H201.258V107.6C201.258 103.267 200.292 100.067 198.358 98C196.492 95.9333 193.825 94.9 190.358 94.9C187.892 94.9 185.658 95.4333 183.658 96.5C181.725 97.5 180.192 99.0667 179.058 101.2C177.992 103.333 177.458 106.067 177.458 109.4V136H161.858V61.8H177.458V97.1L173.958 92.6C175.892 89 178.658 86.2333 182.258 84.3C185.858 82.3667 189.958 81.4 194.558 81.4ZM263.999 136V125.5L262.999 123.2V104.4C262.999 101.067 261.965 98.4667 259.899 96.6C257.899 94.7333 254.799 93.8 250.599 93.8C247.732 93.8 244.899 94.2667 242.099 95.2C239.365 96.0667 237.032 97.2667 235.099 98.8L229.499 87.9C232.432 85.8333 235.965 84.2333 240.099 83.1C244.232 81.9667 248.432 81.4 252.699 81.4C260.899 81.4 267.265 83.3333 271.799 87.2C276.332 91.0667 278.599 97.1 278.599 105.3V136H263.999ZM247.599 136.8C243.399 136.8 239.799 136.1 236.799 134.7C233.799 133.233 231.499 131.267 229.899 128.8C228.299 126.333 227.499 123.567 227.499 120.5C227.499 117.3 228.265 114.5 229.799 112.1C231.399 109.7 233.899 107.833 237.299 106.5C240.699 105.1 245.132 104.4 250.599 104.4H264.899V113.5H252.299C248.632 113.5 246.099 114.1 244.699 115.3C243.365 116.5 242.699 118 242.699 119.8C242.699 121.8 243.465 123.4 244.999 124.6C246.599 125.733 248.765 126.3 251.499 126.3C254.099 126.3 256.432 125.7 258.499 124.5C260.565 123.233 262.065 121.4 262.999 119L265.399 126.2C264.265 129.667 262.199 132.3 259.199 134.1C256.199 135.9 252.332 136.8 247.599 136.8ZM298.541 156.2C295.741 156.2 292.974 155.767 290.241 154.9C287.508 154.033 285.274 152.833 283.541 151.3L289.241 140.2C290.441 141.267 291.808 142.1 293.341 142.7C294.941 143.3 296.508 143.6 298.041 143.6C300.241 143.6 301.974 143.067 303.241 142C304.574 141 305.774 139.3 306.841 136.9L309.641 130.3L310.841 128.6L330.141 82.2H345.141L320.841 139.3C319.108 143.633 317.108 147.033 314.841 149.5C312.641 151.967 310.174 153.7 307.441 154.7C304.774 155.7 301.808 156.2 298.541 156.2ZM307.741 138.1L283.741 82.2H299.841L318.441 127.2L307.741 138.1ZM382.749 136V125.5L381.749 123.2V104.4C381.749 101.067 380.715 98.4667 378.649 96.6C376.649 94.7333 373.549 93.8 369.349 93.8C366.482 93.8 363.649 94.2667 360.849 95.2C358.115 96.0667 355.782 97.2667 353.849 98.8L348.249 87.9C351.182 85.8333 354.715 84.2333 358.849 83.1C362.982 81.9667 367.182 81.4 371.449 81.4C379.649 81.4 386.015 83.3333 390.549 87.2C395.082 91.0667 397.349 97.1 397.349 105.3V136H382.749ZM366.349 136.8C362.149 136.8 358.549 136.1 355.549 134.7C352.549 133.233 350.249 131.267 348.649 128.8C347.049 126.333 346.249 123.567 346.249 120.5C346.249 117.3 347.015 114.5 348.549 112.1C350.149 109.7 352.649 107.833 356.049 106.5C359.449 105.1 363.882 104.4 369.349 104.4H383.649V113.5H371.049C367.382 113.5 364.849 114.1 363.449 115.3C362.115 116.5 361.449 118 361.449 119.8C361.449 121.8 362.215 123.4 363.749 124.6C365.349 125.733 367.515 126.3 370.249 126.3C372.849 126.3 375.182 125.7 377.249 124.5C379.315 123.233 380.815 121.4 381.749 119L384.149 126.2C383.015 129.667 380.949 132.3 377.949 134.1C374.949 135.9 371.082 136.8 366.349 136.8ZM433.468 136.8C427.134 136.8 422.201 135.2 418.668 132C415.134 128.733 413.368 123.9 413.368 117.5V70.3H428.968V117.3C428.968 119.567 429.568 121.333 430.768 122.6C431.968 123.8 433.601 124.4 435.668 124.4C438.134 124.4 440.234 123.733 441.968 122.4L446.168 133.4C444.568 134.533 442.634 135.4 440.368 136C438.168 136.533 435.868 136.8 433.468 136.8ZM405.068 95.4V83.4H442.368V95.4H405.068Z" fill="white"/>
</g>
<g filter="url(#filter1_d_2_15)">
<path d="M37.7316 28.3985C37.5825 28.3245 37.4709 28.2494 37.3849 28.1676C37.2126 28.003 37.0837 27.6283 37.0518 27.4824C36.9974 27.237 37.0161 26.8601 37.0327 26.528C37.0391 26.4004 37.0451 26.2845 37.0451 26.1952C37.0451 26.0103 37.062 25.7707 37.0798 25.5172C37.1181 24.9741 37.1661 24.2992 37.0593 23.9719C36.9066 23.5032 36.6374 22.945 36.2231 22.945C35.7403 22.945 35.2138 23.6553 35.1489 23.9452C35.0466 24.4045 35.0466 25.406 35.1486 25.8596C35.1676 25.944 35.2602 26.1118 35.3348 26.2471C35.4072 26.3785 35.4757 26.5032 35.5152 26.6101C35.5366 26.6694 35.5674 26.7415 35.6015 26.8221C35.7702 27.2228 35.9799 27.7218 35.8426 28.0697C35.6404 28.5812 34.9917 28.8447 34.3049 29.124C33.8175 29.3221 33.2653 29.5469 33.1114 29.8098C32.8377 30.2778 32.6814 31.4777 32.9189 31.7512C33.4769 32.3942 34.9868 32.8264 36.6767 32.8264H36.677C37.4326 32.8264 38.1354 32.7398 38.7217 32.5794C38.2844 32.3655 37.9344 32.1081 37.6764 31.8105C36.9151 30.9346 37.3677 29.0322 37.7316 28.3985Z" fill="#FF0B0B"/>
<path d="M42.646 14C35.6615 14 30 20.0443 30 27.5002C30 34.9557 35.6618 41 42.646 41C49.6301 41 55.292 34.9554 55.292 27.5002C55.292 20.044 49.6304 14 42.646 14ZM39.5801 32.8461C38.8405 33.1847 37.8094 33.3715 36.6767 33.3715C36.6767 33.3715 36.6767 33.3715 36.6764 33.3715C35.2702 33.3715 33.3447 33.0442 32.5447 32.122C32.0746 31.5802 32.3579 30.0717 32.6787 29.5224C32.9231 29.1047 33.5058 28.8676 34.1229 28.6166C34.6537 28.4008 35.2551 28.156 35.3725 27.859C35.4235 27.7295 35.2149 27.2328 35.1362 27.0463C35.0982 26.9564 35.0641 26.8752 35.0402 26.8099C35.0155 26.7425 34.9542 26.6311 34.8954 26.5235C34.7943 26.3405 34.6899 26.1505 34.6531 25.9875C34.5327 25.454 34.5327 24.3598 34.6531 23.8199C34.7617 23.3322 35.4579 22.4013 36.2231 22.4013C36.6169 22.4013 37.1652 22.6429 37.5406 23.7929C37.6824 24.2277 37.6323 24.9341 37.5883 25.5581C37.5711 25.801 37.5548 26.0313 37.5548 26.1956C37.5548 26.2925 37.5487 26.4188 37.5418 26.5573C37.5285 26.8234 37.5104 27.1883 37.5481 27.3581C37.5786 27.4966 37.6797 27.7166 37.7247 27.7614C37.8393 27.8712 38.0684 27.9656 38.2307 28.0262C38.3131 28.0578 38.3749 28.1309 38.3942 28.222C38.4136 28.3132 38.3879 28.4082 38.3264 28.4743C38.2566 28.549 38.2069 28.6134 38.1697 28.6769C37.8689 29.1916 37.5032 30.8109 38.0502 31.4413C38.3695 31.8095 38.8758 32.1101 39.5554 32.3352C39.6574 32.369 39.7289 32.4666 39.7343 32.5807C39.7398 32.6947 39.6782 32.8007 39.5801 32.8461ZM42.2784 32.5994C40.8714 32.5994 38.9443 32.2721 38.1438 31.3492C37.6737 30.8071 37.957 29.2982 38.2778 28.7497C38.5222 28.3319 39.1049 28.0948 39.722 27.8439C40.2528 27.6271 40.8542 27.3823 40.9715 27.0853C41.0228 26.9558 40.8137 26.4594 40.7347 26.2719C40.6969 26.1827 40.6631 26.1015 40.639 26.0361C40.6143 25.9688 40.553 25.858 40.4939 25.7504C40.3931 25.5668 40.2884 25.3774 40.2519 25.2144C40.1315 24.6809 40.1315 23.5867 40.2519 23.0465C40.3605 22.5594 41.0563 21.6279 41.8219 21.6279C42.2157 21.6279 42.764 21.8695 43.1394 23.0201C43.2812 23.4543 43.2311 24.1614 43.187 24.785C43.1698 25.0285 43.1535 25.2582 43.1535 25.4228C43.1535 25.5191 43.1472 25.6454 43.1406 25.7839C43.1273 26.0506 43.1092 26.4149 43.1466 26.5847C43.1777 26.7232 43.2788 26.9439 43.3234 26.9886C43.4834 27.1416 43.8572 27.2673 44.2181 27.39C44.7269 27.562 45.207 27.7244 45.4523 28.0375C45.9303 28.6479 46.7118 30.5735 46.159 31.3318C45.5803 32.1252 44.1294 32.5994 42.2784 32.5994ZM52.1 28.8109C52.5774 29.4207 53.3589 31.3469 52.8067 32.1046C52.2282 32.898 50.7786 33.3725 48.9291 33.3725C47.5248 33.3725 46.1998 33.0832 45.3841 32.5994C45.3011 32.5501 45.2504 32.4557 45.2529 32.3533C45.2556 32.2521 45.3108 32.1606 45.3965 32.1162C45.771 31.9229 46.0613 31.6871 46.2592 31.4152C46.7345 30.7642 46.3175 29.5253 46.1159 29.0225C46.0887 28.9545 46.0887 28.8779 46.1159 28.8093C46.143 28.7413 46.1949 28.6878 46.2595 28.6614L46.37 28.616C46.9004 28.4002 47.5015 28.156 47.6189 27.859C47.6699 27.7295 47.4611 27.2328 47.3827 27.0463C47.3449 26.9564 47.3108 26.8746 47.287 26.8092C47.2623 26.7425 47.201 26.6311 47.1418 26.5235C47.0411 26.3399 46.9364 26.1505 46.8995 25.9875C46.7794 25.4534 46.7794 24.3591 46.8995 23.8199C47.0079 23.3322 47.704 22.4013 48.4696 22.4013C48.8634 22.4013 49.4114 22.6429 49.7867 23.7929C49.9286 24.2271 49.8785 24.9341 49.8344 25.5581C49.8169 25.801 49.8009 26.0313 49.8009 26.1956C49.8009 26.2925 49.7946 26.4188 49.7879 26.5573C49.7744 26.8234 49.7566 27.1877 49.7943 27.3581C49.8254 27.4966 49.9262 27.7166 49.9714 27.762C50.131 27.9147 50.5049 28.04 50.8655 28.1628C51.3743 28.3345 51.8544 28.4975 52.1 28.8109Z" fill="#FF0B0B"/>
<path d="M44.064 27.9083C43.6325 27.7627 43.2254 27.6251 42.9837 27.3942C42.8117 27.2299 42.6825 26.8556 42.6505 26.7097C42.5962 26.4642 42.6149 26.0873 42.6315 25.7552C42.6379 25.628 42.6436 25.511 42.6436 25.4225C42.6436 25.2376 42.6605 24.9979 42.6786 24.7437C42.7169 24.2013 42.7649 23.5264 42.6581 23.1992C42.5051 22.7305 42.2362 22.1722 41.8222 22.1722C41.3394 22.1722 40.8128 22.8825 40.748 23.1724C40.6457 23.6311 40.6454 24.6333 40.7477 25.0862C40.7667 25.1706 40.8593 25.3384 40.9335 25.4737C41.0063 25.6057 41.0745 25.7298 41.114 25.8374C41.1354 25.8953 41.1659 25.9675 41.2 26.048C41.369 26.4494 41.579 26.9484 41.4417 27.2969C41.2392 27.8084 40.5908 28.0722 39.9037 28.3512C39.4163 28.5493 38.8638 28.7741 38.7102 29.037C38.4365 29.505 38.2802 30.7053 38.5177 30.9784C39.0759 31.622 40.5871 32.0543 42.2782 32.0543C43.9227 32.0543 45.2876 31.6391 45.7562 30.9961C46.0622 30.5771 45.5287 28.9835 45.0607 28.3857C44.911 28.1953 44.4611 28.0429 44.064 27.9083Z" fill="#FF0B0B"/>
<path d="M49.6313 28.1676C49.4587 28.0017 49.3302 27.6274 49.2982 27.4824C49.2439 27.2363 49.2623 26.8601 49.2792 26.528C49.2855 26.4004 49.2915 26.2845 49.2915 26.1952C49.2915 26.0103 49.3084 25.7707 49.3266 25.5165C49.3649 24.9741 49.4126 24.2992 49.306 23.9719C49.153 23.5032 48.8845 22.945 48.4702 22.945C47.9874 22.945 47.4605 23.6553 47.3956 23.9452C47.2936 24.4039 47.293 25.406 47.3956 25.8596C47.4143 25.9433 47.507 26.1118 47.5815 26.2464C47.6539 26.3785 47.7227 26.5025 47.7622 26.6101C47.784 26.6694 47.8148 26.7415 47.8489 26.8227C48.0172 27.2234 48.2267 27.7218 48.0894 28.0697C47.9008 28.5477 47.3208 28.8096 46.685 29.0698C46.9554 29.833 47.2134 30.9932 46.6624 31.7486C46.5042 31.9651 46.3033 32.1616 46.0616 32.3352C46.806 32.6461 47.8374 32.8255 48.9294 32.8255C50.5725 32.8255 51.9364 32.4109 52.4051 31.7686C52.7107 31.3489 52.1769 29.7553 51.7095 29.1581C51.5592 28.9661 51.109 28.8141 50.7119 28.6794C50.2804 28.5351 49.8727 28.3979 49.6313 28.1676Z" fill="#FF0B0B"/>
</g>
<defs>
<filter id="filter0_d_2_15" x="0.516998" y="50.86" width="449.651" height="113.34" filterUnits="userSpaceOnUse" color-interpolation-filters="sRGB">
<feFlood flood-opacity="0" result="BackgroundImageFix"/>
<feColorMatrix in="SourceAlpha" type="matrix" values="0 0 0 0 0 0 0 0 0 0 0 0 0 0 0 0 0 0 127 0" result="hardAlpha"/>
<feOffset dy="4"/>
<feGaussianBlur stdDeviation="2"/>
<feComposite in2="hardAlpha" operator="out"/>
<feColorMatrix type="matrix" values="0 0 0 0 0 0 0 0 0 0 0 0 0 0 0 0 0 0 0.25 0"/>
<feBlend mode="normal" in2="BackgroundImageFix" result="effect1_dropShadow_2_15"/>
<feBlend mode="normal" in="SourceGraphic" in2="effect1_dropShadow_2_15" result="shape"/>
</filter>
<filter id="filter1_d_2_15" x="26" y="14" width="33.292" height="35" filterUnits="userSpaceOnUse" color-interpolation-filters="sRGB">
<feFlood flood-opacity="0" result="BackgroundImageFix"/>
<feColorMatrix in="SourceAlpha" type="matrix" values="0 0 0 0 0 0 0 0 0 0 0 0 0 0 0 0 0 0 127 0" result="hardAlpha"/>
<feOffset dy="4"/>
<feGaussianBlur stdDeviation="2"/>
<feComposite in2="hardAlpha" operator="out"/>
<feColorMatrix type="matrix" values="0 0 0 0 0 0 0 0 0 0 0 0 0 0 0 0 0 0 0.25 0"/>
<feBlend mode="normal" in2="BackgroundImageFix" result="effect1_dropShadow_2_15"/>
<feBlend mode="normal" in="SourceGraphic" in2="effect1_dropShadow_2_15" result="shape"/>
</filter>
</defs>
</svg>
